# Blender 5.2.2 LTS
# www.blender.org
mtllib portalcase.mtl
o Circle
v 0.000000 0.991266 -0.491266
v -0.195090 0.972052 -0.491266
v -0.382683 0.915146 -0.491266
v -0.555570 0.822736 -0.491266
v -0.707107 0.698373 -0.491266
v -0.831470 0.546837 -0.491266
v -0.923880 0.373950 -0.491266
v -0.980785 0.186357 -0.491266
v -1.000000 -0.008734 -0.491266
v -0.980785 -0.203824 -0.491266
v -0.923880 -0.391417 -0.491266
v -0.831470 -0.564304 -0.491266
v -0.707107 -0.715840 -0.491266
v -0.555570 -0.840203 -0.491266
v -0.382683 -0.932613 -0.491266
v -0.195090 -0.989519 -0.491266
v 0.000000 -1.008734 -0.491266
v 0.195090 -0.989519 -0.491266
v 0.382683 -0.932613 -0.491266
v 0.555570 -0.840203 -0.491266
v 0.707107 -0.715840 -0.491266
v 0.831470 -0.564304 -0.491266
v 0.923880 -0.391417 -0.491266
v 0.980785 -0.203824 -0.491266
v 1.000000 -0.008734 -0.491266
v 0.980785 0.186357 -0.491266
v 0.923880 0.373950 -0.491266
v 0.831470 0.546837 -0.491266
v 0.707107 0.698373 -0.491266
v 0.555570 0.822736 -0.491266
v 0.382683 0.915146 -0.491266
v 0.195090 0.972052 -0.491266
v -0.195090 0.972052 0.322662
v -0.204892 1.021328 0.372662
v 0.000000 1.041508 0.372662
v 0.000000 0.991266 0.322662
v -0.382683 0.915146 0.322662
v -0.401910 0.961563 0.372662
v -0.555570 0.822736 0.322662
v -0.583483 0.864511 0.372662
v -0.707107 0.698373 0.322662
v -0.742633 0.733900 0.372662
v -0.831470 0.546837 0.322662
v -0.873244 0.574749 0.372662
v -0.923880 0.373950 0.322662
v -0.970297 0.393177 0.372662
v -0.980785 0.186357 0.322662
v -1.030062 0.196158 0.372662
v -1.000000 -0.008734 0.322662
v -1.050242 -0.008734 0.372662
v -0.980785 -0.203824 0.322662
v -1.030062 -0.213626 0.372662
v -0.923880 -0.391417 0.322662
v -0.970297 -0.410644 0.372662
v -0.831470 -0.564304 0.322662
v -0.873244 -0.592217 0.372662
v -0.707107 -0.715840 0.322662
v -0.742633 -0.751367 0.372662
v -0.555570 -0.840203 0.322662
v -0.583483 -0.881978 0.372662
v -0.382683 -0.932613 0.322662
v -0.401910 -0.979031 0.372662
v -0.195090 -0.989519 0.322662
v -0.204892 -1.038795 0.372662
v 0.000000 -1.008734 0.322662
v 0.000000 -1.058976 0.372662
v 0.195090 -0.989519 0.322662
v 0.204892 -1.038795 0.372662
v 0.382683 -0.932613 0.322662
v 0.401910 -0.979031 0.372662
v 0.555570 -0.840203 0.322662
v 0.583483 -0.881978 0.372662
v 0.707107 -0.715840 0.322662
v 0.742633 -0.751367 0.372662
v 0.831470 -0.564304 0.322662
v 0.873244 -0.592217 0.372662
v 0.923880 -0.391417 0.322662
v 0.970297 -0.410644 0.372662
v 0.980785 -0.203824 0.322662
v 1.030062 -0.213626 0.372662
v 1.000000 -0.008734 0.322662
v 1.050242 -0.008734 0.372662
v 0.980785 0.186357 0.322662
v 1.030062 0.196158 0.372662
v 0.923880 0.373950 0.322662
v 0.970297 0.393177 0.372662
v 0.831470 0.546837 0.322662
v 0.873244 0.574749 0.372662
v 0.707107 0.698373 0.322662
v 0.742633 0.733900 0.372662
v 0.555570 0.822736 0.322662
v 0.583483 0.864511 0.372662
v 0.382683 0.915146 0.322662
v 0.401910 0.961563 0.372662
v 0.195090 0.972052 0.322662
v 0.204892 1.021328 0.372662
v -0.234061 1.167971 0.372662
v -0.243863 1.217248 0.322662
v 0.000000 1.241266 0.322662
v 0.000000 1.191024 0.372662
v -0.459128 1.099698 0.372662
v -0.478354 1.146116 0.322662
v -0.666550 0.988829 0.372662
v -0.694463 1.030603 0.322662
v -0.848357 0.839623 0.372662
v -0.883883 0.875150 0.322662
v -0.997562 0.657816 0.372662
v -1.039337 0.685729 0.322662
v -1.108432 0.450394 0.372662
v -1.154849 0.469621 0.322662
v -1.176705 0.225328 0.372662
v -1.225982 0.235129 0.322662
v -1.199758 -0.008734 0.372662
v -1.250000 -0.008734 0.322662
v -1.176705 -0.242795 0.372662
v -1.225982 -0.252597 0.322662
v -1.108432 -0.467861 0.372662
v -1.154849 -0.487088 0.322662
v -0.997562 -0.675283 0.372662
v -1.039337 -0.703196 0.322662
v -0.848357 -0.857091 0.372662
v -0.883883 -0.892617 0.322662
v -0.666550 -1.006296 0.372662
v -0.694463 -1.048071 0.322662
v -0.459128 -1.117166 0.372662
v -0.478354 -1.163583 0.322662
v -0.234061 -1.185439 0.372662
v -0.243863 -1.234715 0.322662
v 0.000000 -1.208492 0.372662
v 0.000000 -1.258734 0.322662
v 0.234061 -1.185439 0.372662
v 0.243863 -1.234715 0.322662
v 0.459128 -1.117166 0.372662
v 0.478354 -1.163583 0.322662
v 0.666550 -1.006296 0.372662
v 0.694463 -1.048071 0.322662
v 0.848357 -0.857091 0.372662
v 0.883883 -0.892617 0.322662
v 0.997562 -0.675283 0.372662
v 1.039337 -0.703196 0.322662
v 1.108432 -0.467861 0.372662
v 1.154849 -0.487088 0.322662
v 1.176705 -0.242795 0.372662
v 1.225982 -0.252597 0.322662
v 1.199758 -0.008734 0.372662
v 1.250000 -0.008734 0.322662
v 1.176705 0.225328 0.372662
v 1.225982 0.235129 0.322662
v 1.108432 0.450394 0.372662
v 1.154849 0.469621 0.322662
v 0.997562 0.657816 0.372662
v 1.039337 0.685729 0.322662
v 0.848357 0.839623 0.372662
v 0.883883 0.875150 0.322662
v 0.666550 0.988829 0.372662
v 0.694463 1.030603 0.322662
v 0.459128 1.099698 0.372662
v 0.478354 1.146116 0.322662
v 0.234061 1.167971 0.372662
v 0.243863 1.217248 0.322662
v 0.000000 1.157713 -0.491266
v 0.000000 1.241266 -0.408116
v -0.243863 1.217248 -0.408116
v -0.227563 1.135300 -0.491266
v -0.478354 1.146116 -0.408116
v -0.446380 1.068923 -0.491266
v -0.694463 1.030603 -0.408116
v -0.648043 0.961132 -0.491266
v -0.883883 0.875150 -0.408116
v -0.824803 0.816069 -0.491266
v -1.039337 0.685729 -0.408116
v -0.969865 0.639309 -0.491266
v -1.154849 0.469621 -0.408116
v -1.077657 0.437646 -0.491266
v -1.225982 0.235129 -0.408116
v -1.144034 0.218829 -0.491266
v -1.250000 -0.008734 -0.408116
v -1.166447 -0.008734 -0.491266
v -1.225982 -0.252597 -0.408116
v -1.144034 -0.236297 -0.491266
v -1.154849 -0.487088 -0.408116
v -1.077657 -0.455113 -0.491266
v -1.039337 -0.703196 -0.408116
v -0.969865 -0.656777 -0.491266
v -0.883883 -0.892617 -0.408116
v -0.824803 -0.833536 -0.491266
v -0.694463 -1.048071 -0.408116
v -0.648043 -0.978599 -0.491266
v -0.478354 -1.163583 -0.408116
v -0.446380 -1.086390 -0.491266
v -0.243863 -1.234715 -0.408116
v -0.227563 -1.152768 -0.491266
v 0.000000 -1.258734 -0.408116
v 0.000000 -1.175181 -0.491266
v 0.243863 -1.234715 -0.408116
v 0.227563 -1.152768 -0.491266
v 0.478354 -1.163583 -0.408116
v 0.446380 -1.086390 -0.491266
v 0.694463 -1.048071 -0.408116
v 0.648043 -0.978599 -0.491266
v 0.883883 -0.892617 -0.408116
v 0.824803 -0.833536 -0.491266
v 1.039337 -0.703196 -0.408116
v 0.969865 -0.656777 -0.491266
v 1.154849 -0.487088 -0.408116
v 1.077657 -0.455113 -0.491266
v 1.225982 -0.252597 -0.408116
v 1.144034 -0.236297 -0.491266
v 1.250000 -0.008734 -0.408116
v 1.166447 -0.008734 -0.491266
v 1.225982 0.235129 -0.408116
v 1.144034 0.218829 -0.491266
v 1.154849 0.469621 -0.408116
v 1.077657 0.437646 -0.491266
v 1.039337 0.685729 -0.408116
v 0.969865 0.639309 -0.491266
v 0.883883 0.875150 -0.408116
v 0.824803 0.816069 -0.491266
v 0.694463 1.030603 -0.408116
v 0.648043 0.961132 -0.491266
v 0.478354 1.146116 -0.408116
v 0.446380 1.068923 -0.491266
v 0.243863 1.217248 -0.408116
v 0.227563 1.135300 -0.491266
vn -0.0000 -0.0000 1.0000
vn 0.0693 -0.7037 0.7071
vn 0.2053 -0.6767 0.7071
vn 0.3333 -0.6236 0.7071
vn 0.4486 -0.5466 0.7071
vn 0.5466 -0.4486 0.7071
vn 0.6236 -0.3333 0.7071
vn 0.6767 -0.2053 0.7071
vn 0.7037 -0.0693 0.7071
vn 0.7037 0.0693 0.7071
vn 0.6767 0.2053 0.7071
vn 0.6236 0.3333 0.7071
vn 0.5466 0.4486 0.7071
vn 0.4486 0.5466 0.7071
vn 0.3333 0.6236 0.7071
vn 0.2053 0.6767 0.7071
vn 0.0693 0.7037 0.7071
vn -0.0693 0.7037 0.7071
vn -0.2053 0.6767 0.7071
vn -0.3333 0.6236 0.7071
vn -0.4486 0.5466 0.7071
vn -0.5466 0.4486 0.7071
vn -0.6236 0.3333 0.7071
vn -0.6767 0.2053 0.7071
vn -0.7037 0.0693 0.7071
vn -0.7037 -0.0693 0.7071
vn -0.6767 -0.2053 0.7071
vn -0.6236 -0.3333 0.7071
vn -0.5466 -0.4486 0.7071
vn -0.4486 -0.5466 0.7071
vn -0.3333 -0.6236 0.7071
vn -0.2053 -0.6767 0.7071
vn -0.0693 -0.7037 0.7071
vn 0.0980 -0.9952 -0.0000
vn 0.2903 -0.9569 -0.0000
vn -0.0980 -0.9952 -0.0000
vn 0.4714 -0.8819 -0.0000
vn 0.6344 -0.7730 -0.0000
vn 0.7730 -0.6344 -0.0000
vn 0.8819 -0.4714 -0.0000
vn 0.9569 -0.2903 -0.0000
vn 0.9952 -0.0980 -0.0000
vn 0.9952 0.0980 -0.0000
vn 0.9569 0.2903 -0.0000
vn 0.8819 0.4714 -0.0000
vn 0.7730 0.6344 -0.0000
vn 0.6344 0.7730 -0.0000
vn 0.4714 0.8819 -0.0000
vn 0.2903 0.9569 -0.0000
vn 0.0980 0.9952 -0.0000
vn -0.0980 0.9952 -0.0000
vn -0.2903 0.9569 -0.0000
vn -0.4714 0.8819 -0.0000
vn -0.6344 0.7730 -0.0000
vn -0.7730 0.6344 -0.0000
vn -0.8819 0.4714 -0.0000
vn -0.9569 0.2903 -0.0000
vn -0.9952 0.0980 -0.0000
vn -0.9952 -0.0980 -0.0000
vn -0.9569 -0.2903 -0.0000
vn -0.8819 -0.4714 -0.0000
vn -0.7730 -0.6344 -0.0000
vn -0.6344 -0.7730 -0.0000
vn -0.4714 -0.8819 -0.0000
vn -0.2903 -0.9569 -0.0000
vn -0.0693 0.7037 -0.7071
vn -0.2053 0.6767 -0.7071
vn -0.3333 0.6236 -0.7071
vn -0.4486 0.5466 -0.7071
vn -0.5466 0.4486 -0.7071
vn -0.6236 0.3333 -0.7071
vn -0.6767 0.2053 -0.7071
vn -0.7037 0.0693 -0.7071
vn -0.7037 -0.0693 -0.7071
vn -0.6767 -0.2053 -0.7071
vn -0.6236 -0.3333 -0.7071
vn -0.5466 -0.4486 -0.7071
vn -0.4486 -0.5466 -0.7071
vn -0.3333 -0.6236 -0.7071
vn -0.2053 -0.6767 -0.7071
vn -0.0693 -0.7037 -0.7071
vn 0.0693 -0.7037 -0.7071
vn 0.2053 -0.6767 -0.7071
vn 0.3333 -0.6236 -0.7071
vn 0.4486 -0.5466 -0.7071
vn 0.5466 -0.4486 -0.7071
vn 0.6236 -0.3333 -0.7071
vn 0.6767 -0.2053 -0.7071
vn 0.7037 -0.0693 -0.7071
vn 0.7037 0.0693 -0.7071
vn 0.6767 0.2053 -0.7071
vn 0.6236 0.3333 -0.7071
vn 0.5466 0.4486 -0.7071
vn 0.4486 0.5466 -0.7071
vn 0.3333 0.6236 -0.7071
vn 0.2053 0.6767 -0.7071
vn 0.0693 0.7037 -0.7071
vn -0.0000 -0.0000 -1.0000
vt 0.000000 0.000000
s 0
f 2/1/1 3/1/1 4/1/1 5/1/1 6/1/1 7/1/1 8/1/1 9/1/1 10/1/1 11/1/1 12/1/1 13/1/1 14/1/1 15/1/1 16/1/1 17/1/1 18/1/1 19/1/1 20/1/1 21/1/1 22/1/1 23/1/1 24/1/1 25/1/1 26/1/1 27/1/1 28/1/1 29/1/1 30/1/1 31/1/1 32/1/1 1/1/1
f 34/1/2 33/1/2 36/1/2 35/1/2
f 38/1/3 37/1/3 33/1/3 34/1/3
f 40/1/4 39/1/4 37/1/4 38/1/4
f 42/1/5 41/1/5 39/1/5 40/1/5
f 44/1/6 43/1/6 41/1/6 42/1/6
f 46/1/7 45/1/7 43/1/7 44/1/7
f 48/1/8 47/1/8 45/1/8 46/1/8
f 50/1/9 49/1/9 47/1/9 48/1/9
f 52/1/10 51/1/10 49/1/10 50/1/10
f 54/1/11 53/1/11 51/1/11 52/1/11
f 56/1/12 55/1/12 53/1/12 54/1/12
f 58/1/13 57/1/13 55/1/13 56/1/13
f 60/1/14 59/1/14 57/1/14 58/1/14
f 62/1/15 61/1/15 59/1/15 60/1/15
f 64/1/16 63/1/16 61/1/16 62/1/16
f 66/1/17 65/1/17 63/1/17 64/1/17
f 68/1/18 67/1/18 65/1/18 66/1/18
f 70/1/19 69/1/19 67/1/19 68/1/19
f 72/1/20 71/1/20 69/1/20 70/1/20
f 74/1/21 73/1/21 71/1/21 72/1/21
f 76/1/22 75/1/22 73/1/22 74/1/22
f 78/1/23 77/1/23 75/1/23 76/1/23
f 80/1/24 79/1/24 77/1/24 78/1/24
f 82/1/25 81/1/25 79/1/25 80/1/25
f 84/1/26 83/1/26 81/1/26 82/1/26
f 86/1/27 85/1/27 83/1/27 84/1/27
f 88/1/28 87/1/28 85/1/28 86/1/28
f 90/1/29 89/1/29 87/1/29 88/1/29
f 92/1/30 91/1/30 89/1/30 90/1/30
f 94/1/31 93/1/31 91/1/31 92/1/31
f 96/1/32 95/1/32 93/1/32 94/1/32
f 35/1/33 36/1/33 95/1/33 96/1/33
f 1/1/34 36/1/34 33/1/34 2/1/34
f 2/1/35 33/1/35 37/1/35 3/1/35
f 32/1/36 95/1/36 36/1/36 1/1/36
f 3/1/37 37/1/37 39/1/37 4/1/37
f 4/1/38 39/1/38 41/1/38 5/1/38
f 5/1/39 41/1/39 43/1/39 6/1/39
f 6/1/40 43/1/40 45/1/40 7/1/40
f 7/1/41 45/1/41 47/1/41 8/1/41
f 8/1/42 47/1/42 49/1/42 9/1/42
f 9/1/43 49/1/43 51/1/43 10/1/43
f 10/1/44 51/1/44 53/1/44 11/1/44
f 11/1/45 53/1/45 55/1/45 12/1/45
f 12/1/46 55/1/46 57/1/46 13/1/46
f 13/1/47 57/1/47 59/1/47 14/1/47
f 14/1/48 59/1/48 61/1/48 15/1/48
f 15/1/49 61/1/49 63/1/49 16/1/49
f 16/1/50 63/1/50 65/1/50 17/1/50
f 17/1/51 65/1/51 67/1/51 18/1/51
f 18/1/52 67/1/52 69/1/52 19/1/52
f 19/1/53 69/1/53 71/1/53 20/1/53
f 20/1/54 71/1/54 73/1/54 21/1/54
f 21/1/55 73/1/55 75/1/55 22/1/55
f 22/1/56 75/1/56 77/1/56 23/1/56
f 23/1/57 77/1/57 79/1/57 24/1/57
f 24/1/58 79/1/58 81/1/58 25/1/58
f 25/1/59 81/1/59 83/1/59 26/1/59
f 26/1/60 83/1/60 85/1/60 27/1/60
f 27/1/61 85/1/61 87/1/61 28/1/61
f 28/1/62 87/1/62 89/1/62 29/1/62
f 29/1/63 89/1/63 91/1/63 30/1/63
f 30/1/64 91/1/64 93/1/64 31/1/64
f 31/1/65 93/1/65 95/1/65 32/1/65
f 98/1/18 97/1/18 100/1/18 99/1/18
f 102/1/19 101/1/19 97/1/19 98/1/19
f 104/1/20 103/1/20 101/1/20 102/1/20
f 106/1/21 105/1/21 103/1/21 104/1/21
f 108/1/22 107/1/22 105/1/22 106/1/22
f 110/1/23 109/1/23 107/1/23 108/1/23
f 112/1/24 111/1/24 109/1/24 110/1/24
f 114/1/25 113/1/25 111/1/25 112/1/25
f 116/1/26 115/1/26 113/1/26 114/1/26
f 118/1/27 117/1/27 115/1/27 116/1/27
f 120/1/28 119/1/28 117/1/28 118/1/28
f 122/1/29 121/1/29 119/1/29 120/1/29
f 124/1/30 123/1/30 121/1/30 122/1/30
f 126/1/31 125/1/31 123/1/31 124/1/31
f 128/1/32 127/1/32 125/1/32 126/1/32
f 130/1/33 129/1/33 127/1/33 128/1/33
f 132/1/2 131/1/2 129/1/2 130/1/2
f 134/1/3 133/1/3 131/1/3 132/1/3
f 136/1/4 135/1/4 133/1/4 134/1/4
f 138/1/5 137/1/5 135/1/5 136/1/5
f 140/1/6 139/1/6 137/1/6 138/1/6
f 142/1/7 141/1/7 139/1/7 140/1/7
f 144/1/8 143/1/8 141/1/8 142/1/8
f 146/1/9 145/1/9 143/1/9 144/1/9
f 148/1/10 147/1/10 145/1/10 146/1/10
f 150/1/11 149/1/11 147/1/11 148/1/11
f 152/1/12 151/1/12 149/1/12 150/1/12
f 154/1/13 153/1/13 151/1/13 152/1/13
f 156/1/14 155/1/14 153/1/14 154/1/14
f 158/1/15 157/1/15 155/1/15 156/1/15
f 160/1/16 159/1/16 157/1/16 158/1/16
f 99/1/17 100/1/17 159/1/17 160/1/17
f 35/1/1 100/1/1 97/1/1 34/1/1
f 34/1/1 97/1/1 101/1/1 38/1/1
f 96/1/1 159/1/1 100/1/1 35/1/1
f 38/1/1 101/1/1 103/1/1 40/1/1
f 40/1/1 103/1/1 105/1/1 42/1/1
f 42/1/1 105/1/1 107/1/1 44/1/1
f 44/1/1 107/1/1 109/1/1 46/1/1
f 46/1/1 109/1/1 111/1/1 48/1/1
f 48/1/1 111/1/1 113/1/1 50/1/1
f 50/1/1 113/1/1 115/1/1 52/1/1
f 52/1/1 115/1/1 117/1/1 54/1/1
f 54/1/1 117/1/1 119/1/1 56/1/1
f 56/1/1 119/1/1 121/1/1 58/1/1
f 58/1/1 121/1/1 123/1/1 60/1/1
f 60/1/1 123/1/1 125/1/1 62/1/1
f 62/1/1 125/1/1 127/1/1 64/1/1
f 64/1/1 127/1/1 129/1/1 66/1/1
f 66/1/1 129/1/1 131/1/1 68/1/1
f 68/1/1 131/1/1 133/1/1 70/1/1
f 70/1/1 133/1/1 135/1/1 72/1/1
f 72/1/1 135/1/1 137/1/1 74/1/1
f 74/1/1 137/1/1 139/1/1 76/1/1
f 76/1/1 139/1/1 141/1/1 78/1/1
f 78/1/1 141/1/1 143/1/1 80/1/1
f 80/1/1 143/1/1 145/1/1 82/1/1
f 82/1/1 145/1/1 147/1/1 84/1/1
f 84/1/1 147/1/1 149/1/1 86/1/1
f 86/1/1 149/1/1 151/1/1 88/1/1
f 88/1/1 151/1/1 153/1/1 90/1/1
f 90/1/1 153/1/1 155/1/1 92/1/1
f 92/1/1 155/1/1 157/1/1 94/1/1
f 94/1/1 157/1/1 159/1/1 96/1/1
f 164/1/66 163/1/66 162/1/66 161/1/66
f 166/1/67 165/1/67 163/1/67 164/1/67
f 168/1/68 167/1/68 165/1/68 166/1/68
f 170/1/69 169/1/69 167/1/69 168/1/69
f 172/1/70 171/1/70 169/1/70 170/1/70
f 174/1/71 173/1/71 171/1/71 172/1/71
f 176/1/72 175/1/72 173/1/72 174/1/72
f 178/1/73 177/1/73 175/1/73 176/1/73
f 180/1/74 179/1/74 177/1/74 178/1/74
f 182/1/75 181/1/75 179/1/75 180/1/75
f 184/1/76 183/1/76 181/1/76 182/1/76
f 186/1/77 185/1/77 183/1/77 184/1/77
f 188/1/78 187/1/78 185/1/78 186/1/78
f 190/1/79 189/1/79 187/1/79 188/1/79
f 192/1/80 191/1/80 189/1/80 190/1/80
f 194/1/81 193/1/81 191/1/81 192/1/81
f 196/1/82 195/1/82 193/1/82 194/1/82
f 198/1/83 197/1/83 195/1/83 196/1/83
f 200/1/84 199/1/84 197/1/84 198/1/84
f 202/1/85 201/1/85 199/1/85 200/1/85
f 204/1/86 203/1/86 201/1/86 202/1/86
f 206/1/87 205/1/87 203/1/87 204/1/87
f 208/1/88 207/1/88 205/1/88 206/1/88
f 210/1/89 209/1/89 207/1/89 208/1/89
f 212/1/90 211/1/90 209/1/90 210/1/90
f 214/1/91 213/1/91 211/1/91 212/1/91
f 216/1/92 215/1/92 213/1/92 214/1/92
f 218/1/93 217/1/93 215/1/93 216/1/93
f 220/1/94 219/1/94 217/1/94 218/1/94
f 222/1/95 221/1/95 219/1/95 220/1/95
f 224/1/96 223/1/96 221/1/96 222/1/96
f 161/1/97 162/1/97 223/1/97 224/1/97
f 163/1/51 98/1/51 99/1/51 162/1/51
f 164/1/98 161/1/98 224/1/98 222/1/98 220/1/98 218/1/98 216/1/98 214/1/98 212/1/98 210/1/98 208/1/98 206/1/98 204/1/98 202/1/98 200/1/98 198/1/98 196/1/98 194/1/98 192/1/98 190/1/98 188/1/98 186/1/98 184/1/98 182/1/98 180/1/98 178/1/98 176/1/98 174/1/98 172/1/98 170/1/98 168/1/98 166/1/98
f 162/1/50 99/1/50 160/1/50 223/1/50
f 165/1/52 102/1/52 98/1/52 163/1/52
f 167/1/53 104/1/53 102/1/53 165/1/53
f 169/1/54 106/1/54 104/1/54 167/1/54
f 171/1/55 108/1/55 106/1/55 169/1/55
f 173/1/56 110/1/56 108/1/56 171/1/56
f 175/1/57 112/1/57 110/1/57 173/1/57
f 177/1/58 114/1/58 112/1/58 175/1/58
f 179/1/59 116/1/59 114/1/59 177/1/59
f 181/1/60 118/1/60 116/1/60 179/1/60
f 183/1/61 120/1/61 118/1/61 181/1/61
f 185/1/62 122/1/62 120/1/62 183/1/62
f 187/1/63 124/1/63 122/1/63 185/1/63
f 189/1/64 126/1/64 124/1/64 187/1/64
f 191/1/65 128/1/65 126/1/65 189/1/65
f 193/1/36 130/1/36 128/1/36 191/1/36
f 195/1/34 132/1/34 130/1/34 193/1/34
f 197/1/35 134/1/35 132/1/35 195/1/35
f 199/1/37 136/1/37 134/1/37 197/1/37
f 201/1/38 138/1/38 136/1/38 199/1/38
f 203/1/39 140/1/39 138/1/39 201/1/39
f 205/1/40 142/1/40 140/1/40 203/1/40
f 207/1/41 144/1/41 142/1/41 205/1/41
f 209/1/42 146/1/42 144/1/42 207/1/42
f 211/1/43 148/1/43 146/1/43 209/1/43
f 213/1/44 150/1/44 148/1/44 211/1/44
f 215/1/45 152/1/45 150/1/45 213/1/45
f 217/1/46 154/1/46 152/1/46 215/1/46
f 219/1/47 156/1/47 154/1/47 217/1/47
f 221/1/48 158/1/48 156/1/48 219/1/48
f 223/1/49 160/1/49 158/1/49 221/1/49
